<svg xmlns="http://www.w3.org/2000/svg" width="512" height="161" viewBox="0 0 512 161" version="1.1"><path d="" stroke="none" fill="#ec1424" fill-rule="evenodd"/><path d="M 87.500 2.771 C 54.923 13.883, 17.473 52.667, 5.204 88 C 1.029 100.024, -0.360 109.082, 0.200 120.633 C 0.998 137.105, 6.517 146.181, 19.696 152.694 C 26.726 156.169, 28.101 156.488, 37.409 156.804 C 48.382 157.177, 54.106 156.243, 84.500 149.126 C 110.460 143.046, 123.854 141.717, 136.114 144.005 C 144.352 145.543, 153.379 150.405, 157.633 155.597 L 161.319 160.095 164.909 156.658 C 171.897 149.968, 178.682 148.285, 191.503 150.057 C 201.250 151.404, 209.187 153.983, 216.061 158.036 C 218.911 159.716, 221.402 160.932, 221.596 160.737 C 222.484 159.849, 210.584 149.556, 201.931 143.726 C 185.779 132.844, 172.831 129.337, 152.500 130.340 C 137.694 131.071, 128.693 132.648, 100 139.539 C 61.015 148.901, 49.582 149.887, 37.966 144.890 C 19.840 137.092, 18.077 112.427, 33.379 80.705 C 38.421 70.253, 47.107 56.810, 55.480 46.499 C 64.020 35.982, 79.367 20.885, 86.476 16.007 C 96.022 9.457, 106.886 6.286, 109.800 9.200 C 111.556 10.956, 111.312 15, 109.450 15 C 106.562 15, 102.041 18.020, 100.517 20.967 C 96.378 28.970, 100.424 35.262, 107.184 31.335 C 111.108 29.055, 116.589 20.394, 117.492 15.045 C 118.352 9.960, 116.005 4.583, 111.810 2.026 C 106.914 -0.960, 97.601 -0.674, 87.500 2.771 M 344 0.794 C 331.988 1.804, 311.984 12.519, 294.107 27.519 C 273.603 44.722, 251.764 73.835, 241.442 97.724 C 236.237 109.772, 234.528 117.288, 234.558 128 C 234.590 139.289, 236.995 145.956, 242.989 151.371 C 248.118 156.005, 252.752 157.343, 261.681 156.770 C 267.692 156.384, 270.486 155.585, 276.503 152.531 C 290.699 145.326, 306.617 127.521, 313.418 111.241 C 317.083 102.468, 319.206 92.638, 318.396 88.194 C 316.185 76.062, 305.610 74.403, 291.318 83.946 C 283.861 88.926, 279.822 93.970, 274.929 104.411 C 271.238 112.287, 267.327 125.660, 268.400 126.733 C 268.674 127.007, 271.509 124.892, 274.699 122.033 C 277.890 119.173, 282.703 115.625, 285.395 114.147 C 289.366 111.968, 290.516 110.709, 291.483 107.480 C 294.486 97.450, 301.284 88.314, 307.122 86.461 C 309.826 85.603, 313 88.895, 313 92.559 C 313 97.687, 307.882 110.782, 302.932 118.317 C 296.582 127.984, 285.725 138.987, 279.618 141.943 C 270.596 146.310, 262.549 144.377, 258.752 136.929 C 251.385 122.482, 269.426 80.082, 296.265 48.764 C 309.845 32.918, 328.450 16.963, 339.881 11.362 C 344.667 9.016, 354 6.945, 354 8.228 C 354 8.497, 351.428 10.425, 348.284 12.512 C 327.255 26.475, 312.043 54.394, 321.032 62.529 C 323.628 64.878, 330.423 64.882, 334.942 62.537 C 343.348 58.173, 354.429 44.947, 360.034 32.586 C 363.064 25.903, 365.416 15.247, 364.429 12.675 C 363.624 10.578, 367.670 9.546, 373.542 10.351 C 379.864 11.217, 388.805 15.564, 402.263 24.314 C 420.859 36.405, 418.564 36.019, 426.087 28.324 C 429.614 24.716, 431.997 21.575, 431.382 21.343 C 430.767 21.111, 426.042 18.407, 420.882 15.334 C 415.722 12.261, 407.675 7.891, 403 5.623 L 394.500 1.500 381.500 1.561 C 372.087 1.605, 367.362 2.063, 364.376 3.222 C 360.782 4.617, 360.065 4.637, 358.809 3.380 C 357.171 1.742, 349.226 0.355, 344 0.794 M 505.223 5.927 C 491.994 17.957, 473.551 26.480, 458.184 27.665 L 450.236 28.278 444.600 34.860 C 439.132 41.246, 439.032 41.469, 441.232 42.319 C 442.479 42.802, 447.325 42.964, 452 42.679 C 467.926 41.710, 484.246 33.698, 497.441 20.373 C 503.270 14.487, 512.799 1.430, 511.887 0.580 C 511.674 0.381, 508.675 2.787, 505.223 5.927 M 461.013 4.079 C 445.400 11.161, 415.191 41.884, 397.121 69.059 C 392.894 75.416, 386.075 86.974, 381.967 94.743 C 376.012 106.009, 373.994 108.993, 372 109.482 C 370.625 109.819, 368.726 110.325, 367.781 110.605 C 366.239 111.063, 366.281 110.619, 368.186 106.313 C 374.959 91.001, 374.344 80.589, 366.514 78.005 C 362.096 76.547, 358.132 77.369, 350.500 81.326 C 342.778 85.330, 327.328 100.727, 320.228 111.496 C 310.215 126.682, 305.515 144.293, 309.445 151.894 C 311.510 155.887, 316.759 158.323, 321.414 157.450 C 332.472 155.376, 351.426 137.571, 361.015 120.250 C 362.892 116.860, 363.922 116, 366.102 116 C 367.606 116, 369.464 115.759, 370.231 115.465 C 371.222 115.085, 370.680 117.764, 368.362 124.715 C 361.187 146.226, 363.486 157.339, 375.077 157.179 C 380.096 157.110, 383.654 155.141, 390.934 148.401 L 397 142.785 397 146.927 C 397 152.229, 399.308 155.715, 403.603 156.901 C 408.475 158.246, 412.989 156.685, 420.358 151.107 L 426.688 146.316 426.811 149.908 C 426.952 153.997, 430.670 158.006, 434.306 157.990 C 442.100 157.956, 457.784 144.828, 470.732 127.500 L 478.204 117.500 474.996 117.179 C 472.626 116.941, 471.400 117.411, 470.303 118.978 C 465.030 126.506, 456.347 136.460, 452.833 139.006 C 443.616 145.683, 444.867 141.724, 460.166 115.805 C 478.295 85.093, 481 80.398, 481 79.650 C 481 79.292, 477.404 79, 473.008 79 C 466.203 79, 464.838 79.286, 463.814 80.926 C 462.645 82.798, 462.532 82.784, 459.729 80.426 C 455.776 77.099, 449.588 77.169, 442.717 80.618 C 435.033 84.475, 420.104 100.114, 409.986 114.907 C 397.999 132.432, 392.951 138.862, 389.481 141.023 C 385.339 143.603, 383.620 142.331, 383.835 136.846 C 384.039 131.631, 385.048 128.161, 389.624 116.940 L 393.115 108.379 403.138 100.998 C 408.650 96.938, 418.246 88.760, 424.462 82.824 C 438.549 69.372, 459.143 45.799, 457.889 44.561 C 457.675 44.350, 456.257 44.415, 454.737 44.707 C 452.804 45.079, 449.501 48.133, 443.747 54.869 C 430.763 70.070, 408.227 91.638, 401.596 95.210 C 397.392 97.474, 416.749 65.490, 431.374 46.007 C 439.590 35.062, 456.134 17.540, 463.037 12.473 C 471.183 6.493, 472.951 8.266, 468.461 17.912 C 467.075 20.889, 466.067 23.626, 466.221 23.994 C 466.374 24.362, 467.898 24.293, 469.606 23.840 C 472.339 23.116, 472.971 22.232, 474.856 16.488 C 477.413 8.700, 477.487 7.141, 475.443 4.223 C 473.415 1.327, 467.216 1.266, 461.013 4.079 M 352 16.657 C 334.208 28.609, 318.739 53.684, 326.253 58.395 C 331.030 61.389, 346.126 47.494, 352.985 33.790 C 357.214 25.341, 358.344 21.227, 357.827 16.164 L 357.500 12.963 352 16.657 M 101.500 39.802 C 79.529 47.435, 51.310 86.062, 53.216 105.895 C 54.105 115.143, 60.636 120.252, 68.771 118.062 C 79.106 115.279, 94.673 101.153, 105.061 85.131 C 110.230 77.160, 112.074 75.081, 114.410 74.594 C 118.337 73.774, 118.587 74.314, 116.126 78.295 C 109.233 89.449, 106.721 104.413, 110.621 111.090 C 115.334 119.161, 124.660 120.847, 135.434 115.576 C 140.366 113.163, 143.471 110.944, 153.937 102.352 L 156.554 100.204 156.184 106.852 C 155.845 112.951, 156.028 113.700, 158.399 115.917 C 163.298 120.497, 172.917 118.402, 181.472 110.890 C 184.695 108.061, 185 107.971, 185 109.849 C 185 113.712, 187.233 116.922, 190.720 118.073 C 193.789 119.086, 194.817 118.872, 200.607 116.022 C 204.840 113.938, 209.764 110.196, 214.884 105.171 C 222.330 97.863, 236 81.424, 236 79.777 C 236 79.350, 234.751 79, 233.224 79 C 230.961 79, 228.916 80.766, 222.162 88.552 C 214.355 97.553, 209.106 101.988, 206.250 101.996 C 205.563 101.998, 205 101.402, 205 100.671 C 205 99.940, 212.875 86.164, 222.500 70.057 C 232.125 53.950, 240 40.598, 240 40.386 C 240 40.174, 236.223 40, 231.607 40 C 224.892 40, 223.093 40.315, 222.610 41.575 C 222.083 42.948, 221.668 42.884, 219.368 41.075 C 215.643 38.145, 209.654 38.374, 202.946 41.703 C 195.924 45.189, 181.994 59.056, 171.005 73.500 C 155.515 93.861, 142.252 106, 135.495 106 C 126.870 106, 126.157 98.733, 133.303 83.648 C 140.470 68.517, 150.466 55.690, 160.014 49.372 C 164.529 46.384, 168.359 46.508, 168.807 49.658 C 169.050 51.357, 168.462 51.959, 166.046 52.490 C 160.366 53.737, 155.261 63.118, 158.499 66.356 C 162.293 70.150, 167.474 67.590, 172.011 59.679 C 181.055 43.910, 169.303 33.270, 152.205 41.747 C 149.293 43.191, 143.663 47.326, 139.695 50.936 C 127.234 62.272, 119.355 68, 116.224 68 C 115.742 68, 116.383 64.963, 117.648 61.250 C 121.595 49.668, 120.169 42.222, 113.466 39.421 C 109.152 37.619, 107.647 37.667, 101.500 39.802 M 246.662 47.500 L 242.033 55 250.267 54.981 L 258.500 54.962 262.500 48.231 C 264.700 44.529, 266.650 41.163, 266.833 40.750 C 267.017 40.337, 263.594 40, 259.228 40 L 251.290 40 246.662 47.500 M 101.640 50.304 C 94.302 57.224, 96.175 65.463, 105.763 68.440 C 107.756 69.059, 108.321 68.508, 110.503 63.821 C 112.870 58.738, 113.705 52.001, 112.393 48.582 C 111.286 45.698, 105.549 46.616, 101.640 50.304 M 209.199 50.250 C 204.236 54.211, 197.533 62.340, 188.657 75.161 C 178.380 90.006, 174.337 101.041, 178.578 102.668 C 182.757 104.272, 191.526 93.519, 206.633 68.267 C 212.961 57.689, 217.856 48.576, 217.510 48.017 C 216.357 46.150, 213.311 46.969, 209.199 50.250 M 85.237 71.786 C 78.714 81.506, 74.878 90.205, 74.665 95.757 C 74.297 105.372, 83.148 103.620, 92.718 92.184 C 97.140 86.899, 105.357 74.977, 104.840 74.597 C 104.653 74.460, 102.475 73.348, 100 72.127 C 97.525 70.905, 94.356 68.593, 92.957 66.989 L 90.414 64.072 85.237 71.786 M 359.450 86.407 C 354.562 88.536, 351 93.497, 351 98.177 C 351 101.419, 351.660 102.860, 354.400 105.600 C 356.270 107.470, 358.539 109, 359.442 109 C 361.785 109, 366.998 97.552, 366.999 92.405 C 367 89.707, 366.376 87.745, 365.171 86.655 C 363.021 84.709, 363.318 84.722, 359.450 86.407 M 449.808 89.485 C 439.045 96.798, 418.003 128.657, 418.001 137.643 C 417.999 143.381, 422.586 142.638, 428.289 135.976 C 435.352 127.724, 459.308 89.308, 458.354 87.764 C 457.414 86.242, 453.385 87.054, 449.808 89.485 M 340.043 109.664 C 335.044 116.626, 329.406 128.078, 328.482 133.145 C 327.568 138.155, 329.248 141, 333.122 141 C 335.497 141, 337.586 139.644, 342.549 134.878 C 348.405 129.254, 357 117.674, 357 115.408 C 357 114.884, 355.379 113.582, 353.398 112.515 C 351.416 111.448, 348.544 109.057, 347.014 107.201 L 344.234 103.828 340.043 109.664" stroke="none" fill="#e41424" fill-rule="evenodd"/></svg>