<?xml version="1.0" encoding="utf-8"?>
<!DOCTYPE svg PUBLIC "-//W3C//DTD SVG 20010904//EN" "http://www.w3.org/TR/2001/REC-SVG-20010904/DTD/svg10.dtd">
<svg version="1.0" xmlns="http://www.w3.org/2000/svg" width="602pt" height="129pt" viewBox="0 0 602 129" style="" preserveAspectRatio="xMidYMid meet">
<g fill="#737373FF" stroke="#737373FF">
<path d="M 166.456 27.254 C 166.191 27.944 166.093 45.156 166.237 65.504 L 166.500 102.500 173.750 102.794 L 181.000 103.088 181.063 75.794 C 181.108 56.751 181.425 49.256 182.114 51.000 C 182.657 52.375 185.937 60.250 189.403 68.500 C 192.869 76.750 197.395 87.908 199.462 93.297 L 203.219 103.093 208.803 102.797 L 214.387 102.500 220.341 87.500 C 223.615 79.250 228.080 68.000 230.262 62.500 C 237.281 44.812 236.915 44.116 236.960 75.250 L 237.000 103.000 244.500 103.000 L 252.000 103.000 252.000 64.500 L 252.000 26.000 241.588 26.000 L 231.177 26.000 228.420 33.250 C 226.903 37.238 222.524 47.925 218.689 57.000 C 214.853 66.075 211.296 75.005 210.785 76.844 C 210.273 78.683 209.570 79.903 209.222 79.555 C 208.314 78.647 201.557 61.776 193.779 41.000 C 192.647 37.975 190.828 33.363 189.737 30.750 L 187.754 26.000 177.345 26.000 C 169.924 26.000 166.799 26.360 166.456 27.254 "/></g>
<g fill="#FFB900FF" stroke="#FFB900FF">
<path d="M 67.667 67.667 C 67.300 68.033 67.000 81.758 67.000 98.167 L 67.000 128.000 98.500 128.000 L 130.000 128.000 130.000 97.500 L 130.000 67.000 99.167 67.000 C 82.208 67.000 68.033 67.300 67.667 67.667 "/></g>
<g fill="#7FBA00FF" stroke="#7FBA00FF">
<path d="M 67.235 31.250 L 67.500 61.500 98.750 61.764 L 130.000 62.028 130.000 31.514 L 130.000 1.000 98.485 1.000 L 66.971 1.000 67.235 31.250 "/></g>
<g fill="#00A4EFFF" stroke="#00A4EFFF">
<path d="M 1.000 97.500 L 1.000 128.000 32.000 128.000 L 63.000 128.000 63.000 97.500 L 63.000 67.000 32.000 67.000 L 1.000 67.000 1.000 97.500 "/></g>
<g fill="#F25022FF" stroke="#F25022FF">
<path d="M 1.000 31.500 L 1.000 62.000 32.000 62.000 L 63.000 62.000 63.000 31.500 L 63.000 1.000 32.000 1.000 L 1.000 1.000 1.000 31.500 "/></g>
<g fill="#737373FF" stroke="#737373FF">
<path d="M 552.500 21.890 C 544.922 25.388 541.000 32.064 541.000 41.468 L 541.000 47.000 536.500 47.000 L 532.000 47.000 532.000 53.000 L 532.000 59.000 536.500 59.000 L 541.000 59.000 541.000 81.000 L 541.000 103.000 548.500 103.000 L 556.000 103.000 556.000 81.000 L 556.000 59.000 564.417 59.000 L 572.835 59.000 573.167 76.250 C 573.461 91.467 573.741 93.912 575.549 97.000 C 578.319 101.731 583.066 103.893 590.816 103.952 C 599.943 104.021 601.000 103.198 601.000 96.017 L 601.000 90.104 597.982 91.156 C 593.843 92.599 590.128 91.466 588.965 88.407 C 588.434 87.012 588.000 79.824 588.000 72.435 L 588.000 59.000 594.500 59.000 L 601.000 59.000 601.000 53.000 L 601.000 47.000 594.500 47.000 L 588.000 47.000 588.000 38.588 L 588.000 30.176 580.750 32.377 L 573.500 34.577 573.202 40.789 L 572.905 47.000 564.452 47.000 L 556.000 47.000 556.000 41.955 C 556.000 37.868 556.489 36.420 558.573 34.336 C 561.107 31.802 562.437 31.652 569.000 33.156 C 571.031 33.622 571.784 22.113 569.805 20.858 C 567.388 19.325 556.672 19.965 552.500 21.890 "/></g>
<g fill="#737373FF" stroke="#737373FF">
<path d="M 492.703 47.442 C 485.225 50.110 481.344 53.556 477.868 60.616 C 474.914 66.618 474.572 68.205 474.573 75.906 C 474.575 85.392 476.633 91.234 482.208 97.584 C 487.514 103.627 499.840 106.126 511.522 103.527 C 520.410 101.550 524.194 98.734 528.437 90.939 C 532.488 83.495 533.171 71.049 529.989 62.635 C 527.242 55.374 521.865 49.823 515.464 47.643 C 509.644 45.659 497.988 45.557 492.703 47.442 M 508.601 59.015 C 513.202 60.627 516.353 66.187 516.820 73.520 C 517.570 85.288 513.746 91.058 504.758 91.723 C 495.060 92.439 489.998 86.800 490.002 75.282 C 490.005 62.865 498.465 55.466 508.601 59.015 "/></g>
<g fill="#737373FF" stroke="#737373FF">
<path d="M 387.890 47.413 C 380.368 50.300 377.061 53.275 373.474 60.384 C 370.302 66.671 370.000 68.025 370.000 75.975 C 370.000 83.700 370.347 85.376 373.085 90.854 C 376.946 98.580 380.732 101.501 389.554 103.557 C 401.096 106.247 413.521 103.587 419.102 97.231 C 424.537 91.041 427.133 84.066 427.166 75.563 C 427.217 62.731 422.496 53.376 413.653 48.786 C 408.405 46.061 393.482 45.266 387.890 47.413 M 405.580 59.886 C 409.883 62.510 412.250 68.036 412.250 75.459 C 412.250 86.403 407.734 92.000 398.903 92.000 C 390.323 92.000 385.067 85.738 385.022 75.462 C 384.966 62.516 396.082 54.094 405.580 59.886 "/></g>
<g fill="#737373FF" stroke="#737373FF">
<path d="M 444.871 46.504 C 434.986 49.677 429.822 60.007 433.416 69.419 C 435.472 74.804 437.012 76.213 444.527 79.591 C 453.858 83.785 457.008 87.592 453.800 90.800 C 451.631 92.969 438.682 91.572 435.550 88.831 C 432.921 86.530 432.000 88.099 432.000 94.881 L 432.000 101.763 436.691 102.944 C 442.774 104.475 452.704 104.452 458.175 102.893 C 466.120 100.629 470.000 95.366 470.000 86.853 C 470.000 78.947 466.776 74.939 456.482 70.048 C 448.330 66.175 446.456 64.290 447.497 61.011 C 448.540 57.724 452.703 56.772 458.573 58.478 C 461.502 59.330 464.173 60.470 464.508 61.013 C 466.094 63.579 467.000 61.384 467.000 54.975 C 467.000 48.240 466.887 47.906 464.250 46.870 C 459.672 45.073 449.907 44.888 444.871 46.504 "/></g>
<g fill="#737373FF" stroke="#737373FF">
<path d="M 300.442 48.818 C 289.291 54.185 284.542 62.633 284.598 77.000 C 284.636 86.651 286.397 91.497 291.820 96.882 C 295.329 100.366 297.812 101.861 301.744 102.855 C 308.411 104.542 319.373 104.457 324.520 102.680 L 328.500 101.306 328.796 94.653 C 328.958 90.994 328.690 88.000 328.199 88.000 C 327.709 88.000 325.806 88.749 323.971 89.664 C 316.806 93.239 307.127 92.113 302.668 87.186 C 300.540 84.834 299.446 76.183 300.439 69.561 C 301.026 65.642 301.769 64.455 305.186 61.980 C 311.003 57.767 315.171 57.241 321.393 59.936 C 324.202 61.153 327.063 62.388 327.750 62.681 C 328.683 63.079 329.000 61.405 329.000 56.082 C 329.000 49.248 328.885 48.902 326.250 47.797 C 324.738 47.162 319.675 46.477 315.000 46.273 C 307.253 45.935 305.964 46.161 300.442 48.818 "/></g>
<g fill="#737373FF" stroke="#737373FF">
<path d="M 358.388 47.433 C 356.676 48.178 354.314 49.820 353.138 51.082 L 351.000 53.377 351.000 50.189 L 351.000 47.000 344.000 47.000 L 337.000 47.000 337.000 75.000 L 337.000 103.000 344.000 103.000 L 351.000 103.000 351.024 88.250 C 351.053 70.468 351.846 66.439 356.065 62.659 C 358.721 60.279 359.907 59.886 363.368 60.239 C 365.641 60.470 368.288 61.009 369.250 61.437 C 370.830 62.139 371.000 61.486 371.000 54.714 C 371.000 48.797 370.666 47.086 369.418 46.607 C 366.814 45.607 361.702 45.990 358.388 47.433 "/></g>
<g fill="#737373FF" stroke="#737373FF">
<path d="M 262.000 75.000 L 262.000 103.000 269.500 103.000 L 277.000 103.000 277.000 75.000 L 277.000 47.000 269.500 47.000 L 262.000 47.000 262.000 75.000 "/></g>
<g fill="#737373FF" stroke="#737373FF">
<path d="M 263.635 26.073 C 261.628 27.651 261.000 29.036 261.000 31.881 C 261.000 37.824 262.870 39.500 269.500 39.500 C 276.153 39.500 278.000 37.825 278.000 31.794 C 278.000 28.554 277.505 27.668 274.750 25.989 C 270.574 23.443 266.943 23.470 263.635 26.073 "/></g>
</svg>
