<?xml version="1.0" encoding="UTF-8"?>
<!-- Generator: visioncortex VTracer 0.6.2 -->
<svg version="1.1" xmlns="http://www.w3.org/2000/svg" width="1280" height="480">
<path d="M0 0 C1.20924574 0.00017939 1.20924574 0.00017939 2.44292068 0.0003624 C26.81070669 0.00493154 51.07092182 0.27325053 75.375 2.1875 C76.73315814 2.28606775 78.09139538 2.38355124 79.44970703 2.47998047 C97.66901857 3.78417371 115.76334687 5.89484258 133.875 8.25 C134.87571533 8.37983276 135.87643066 8.50966553 136.9074707 8.64343262 C139.78275563 9.01899019 142.65715394 9.40061484 145.53125 9.78515625 C146.3778418 9.89656448 147.22443359 10.00797272 148.09667969 10.12275696 C162.68761752 12.10690946 175.32250981 14.47930554 185.375 26.1875 C189.9903395 33.19615183 192.95199798 41.05952081 196.0625 48.8125 C196.79049805 50.59527344 196.79049805 50.59527344 197.53320312 52.4140625 C199.77243782 57.94883294 201.92186832 63.39196896 203.375 69.1875 C204.36588623 69.03732422 205.35677246 68.88714844 206.37768555 68.73242188 C213.32786398 67.86881215 220.33911536 67.73731537 227.33203125 67.46875 C228.91827842 67.40555416 230.50451583 67.34211298 232.09074402 67.27844238 C235.42687132 67.14525802 238.76307824 67.01437473 242.09936523 66.88525391 C246.25923876 66.72417969 250.41891564 66.55860253 254.57854176 66.3912735 C257.8696839 66.25925913 261.1609066 66.12934192 264.45215416 65.99998474 C265.97788057 65.9398919 267.50358958 65.87935476 269.02927589 65.81825256 C274.81052901 65.58785132 280.59242378 65.3817795 286.375 65.1875 C287.60823376 65.14590445 288.84146751 65.10430889 290.11207199 65.06145287 C310.91908465 64.36984515 331.70593138 64.02407518 352.52399635 64.02024293 C354.77474316 64.01951309 357.02548447 64.01734436 359.27622986 64.01474571 C367.23900724 64.00559433 375.20176832 64.00139733 383.16455078 64.00219727 C389.60956322 64.0027281 396.05451475 63.99569467 402.49951172 63.98168945 C440.83933134 63.90033443 479.07531833 64.17670622 517.375 66.1875 C518.87139392 66.26406472 520.36779257 66.34053715 521.86419678 66.41690063 C530.18575991 66.84710385 538.49973322 67.36275407 546.8125 67.9375 C548.02598114 68.01986908 549.23946228 68.10223816 550.48971558 68.18710327 C682.06500492 77.19957151 682.06500492 77.19957151 701.375 87.1875 C697.8955655 89.2004628 694.52925195 89.86796163 690.59375 90.59765625 C689.19977879 90.86231411 687.80590296 91.12747469 686.41210938 91.39306641 C685.67500732 91.53174133 684.93790527 91.67041626 684.1784668 91.81329346 C616.11047833 104.71807505 530.40252163 124.49986448 474.375 167.1875 C482.63620138 171.50332942 492.10175241 173.75746676 501.0625 176.1875 C504.375 177.1875 504.375 177.1875 507.75 178.6875 C511.27935065 180.14792096 514.5279154 180.96379861 518.26171875 181.66015625 C520.51701341 182.22293773 522.30304843 183.14747744 524.375 184.1875 C525.80099106 184.56706139 527.24021876 184.89958615 528.6875 185.1875 C534.93189357 186.50157304 540.93777181 188.35802699 546.9765625 190.3984375 C550.33274036 191.50258722 553.71829752 192.49972184 557.10546875 193.50390625 C559.8820828 194.34023578 562.62405691 195.27051897 565.375 196.1875 C566.97806185 196.67034996 568.5823532 197.14912698 570.1875 197.625 C574.12125212 198.79575956 578.01211883 200.05667282 581.8984375 201.375 C584.85463916 202.34485796 587.83231668 203.23164294 590.8125 204.125 C594.79637945 205.33728387 598.65638916 206.64900471 602.5 208.25 C606.80950881 210.04214201 611.14300932 211.2399069 615.65625 212.40625 C618.32550527 213.17327738 620.81379564 214.11762982 623.375 215.1875 C626.75940118 216.59766716 630.07549071 217.70648663 633.625 218.625 C642.29383182 220.87520741 650.62369486 224.15218158 658.99829102 227.29931641 C661.89951022 228.38351111 664.80509047 229.4556144 667.7109375 230.52734375 C668.85820313 230.95080078 670.00546875 231.37425781 671.1875 231.81054688 C673.55435522 232.68384379 675.92154078 233.55624597 678.2890625 234.42773438 C685.02658844 236.9165402 691.71951165 239.48751981 698.375 242.1875 C699.99968738 242.83411938 701.624655 243.48003542 703.25 244.125 C704.95849016 244.81211017 706.66681792 245.49962428 708.375 246.1875 C709.27734375 246.54457031 710.1796875 246.90164063 711.109375 247.26953125 C719.77476124 250.77081569 728.0607679 254.93542445 736.375 259.1875 C736.045 259.8475 735.715 260.5075 735.375 261.1875 C721.187751 261.75638224 707.00019271 262.31729979 692.8125 262.875 C691.69947636 262.91881805 690.58645271 262.96263611 689.43970108 263.00778198 C658.48832812 264.22546398 627.53544912 265.37177263 596.578125 266.42578125 C595.04670773 266.47795624 593.51529052 266.53013304 591.98387337 266.58231163 C588.90937749 266.68704354 585.8348805 266.7917427 582.76038265 266.89641666 C581.9971975 266.92240031 581.23401235 266.94838396 580.44770038 266.975155 C578.90412952 267.02770456 577.36055845 267.0802478 575.81698716 267.13278472 C497.32259495 269.8049343 418.83342966 272.49975085 39.375 332.1875 C36.83563105 332.98718325 34.29553055 333.78446819 31.75488281 334.58007812 C29.83940803 335.18256125 27.92729019 335.79569244 26.015625 336.41015625 C23.375 337.1875 23.375 337.1875 21.375 337.1875 C21.375 336.1975 21.375 335.2075 21.375 334.1875 C20.715 334.1875 20.055 334.1875 19.375 334.1875 C19.25125 333.135625 19.1275 332.08375 19 331 C18.55080056 327.36365698 18.55080056 327.36365698 17.40625 324.828125 C11.27489543 309.12814132 13.00673806 287.15770533 17.375 271.1875 C18.035 270.8575 18.695 270.5275 19.375 270.1875 C-71.37238988 269.31891211 -158.94782644 284.14065683 -308.625 344.1875 C-309.31035828 344.50460937 -309.99571655 344.82171875 -310.70184326 345.1484375 C-339.25311593 358.37715315 -367.54763372 372.15444716 -395.31542969 386.96435547 C-398.86393886 388.84363993 -402.43079513 390.68729436 -405.99536133 392.53588867 C-415.50423378 397.46983435 -424.94148058 402.51584631 -434.33056641 407.67382812 C-442.03110449 411.89246791 -449.80063074 415.97051716 -457.59960938 420.00390625 C-458.93282227 420.69419922 -458.93282227 420.69419922 -460.29296875 421.3984375 C-461.16228027 421.84799805 -462.0315918 422.29755859 -462.92724609 422.76074219 C-466.76245383 424.78906382 -470.53615098 426.92554066 -474.3059082 429.07275391 C-476.625 430.1875 -476.625 430.1875 -479.625 430.1875 C-480.64164209 427.54586843 -480.67585502 426.34615322 -479.79907227 423.61083984 C-479.12702759 422.14445068 -479.12702759 422.14445068 -478.44140625 420.6484375 C-477.93416016 419.52824219 -477.42691406 418.40804688 -476.90429688 417.25390625 C-476.33233873 416.02329454 -475.76006324 414.79283029 -475.1875 413.5625 C-474.59747737 412.27251469 -474.00830259 410.98214129 -473.41992188 409.69140625 C-468.57200936 399.09377931 -463.57870504 388.56297828 -458.60394287 378.02450562 C-440.31766128 339.27791522 -422.12344078 299.89659853 -415.625 257.1875 C-415.50930664 256.46433594 -415.39361328 255.74117187 -415.27441406 254.99609375 C-411.71531534 232.05733285 -412.73694361 208.27590003 -417.19140625 185.5546875 C-417.60678138 183.2869638 -417.88571313 181.04211636 -418.125 178.75 C-418.5725457 175.56123686 -419.15794624 173.9382258 -420.625 171.1875 C-420.810625 169.888125 -420.810625 169.888125 -421 168.5625 C-421.87968983 163.81217489 -423.75821943 159.62741054 -425.625 155.1875 C-426.16640625 153.82625 -426.16640625 153.82625 -426.71875 152.4375 C-430.75447825 142.40271625 -435.40200195 132.52327116 -440.953125 123.23046875 C-441.32719482 122.60188965 -441.70126465 121.97331055 -442.08666992 121.32568359 C-443.12729767 119.59984321 -444.189961 117.88734534 -445.25390625 116.17578125 C-446.625 113.1875 -446.625 113.1875 -446.83984375 110.6484375 C-444.85394193 106.62554956 -441.35251518 104.83577175 -437.625 102.5 C-436.81119873 101.97599609 -435.99739746 101.45199219 -435.15893555 100.91210938 C-432.66033584 99.31586912 -430.14664371 97.74703656 -427.625 96.1875 C-426.91682129 95.74712402 -426.20864258 95.30674805 -425.47900391 94.85302734 C-347.69554113 46.86057446 -254.50508418 24.4195168 -59.625 1.1875 C-58.84364685 1.14513214 -58.0622937 1.10276428 -57.25726318 1.05911255 C-38.17581138 0.04669455 -19.10200062 -0.01257099 0 0 Z M-35.625 1.1875 C-35.625 1.5175 -35.625 1.8475 -35.625 2.1875 C-30.345 2.1875 -25.065 2.1875 -19.625 2.1875 C-19.625 1.8575 -19.625 1.5275 -19.625 1.1875 C-24.905 1.1875 -30.185 1.1875 -35.625 1.1875 Z M21.375 1.1875 C21.375 1.5175 21.375 1.8475 21.375 2.1875 C26.655 2.1875 31.935 2.1875 37.375 2.1875 C37.375 1.8575 37.375 1.5275 37.375 1.1875 C32.095 1.1875 26.815 1.1875 21.375 1.1875 Z M-59.625 2.1875 C-59.625 2.5175 -59.625 2.8475 -59.625 3.1875 C-56.985 3.1875 -54.345 3.1875 -51.625 3.1875 C-51.625 2.8575 -51.625 2.5275 -51.625 2.1875 C-54.265 2.1875 -56.905 2.1875 -59.625 2.1875 Z M52.375 2.1875 C52.375 2.5175 52.375 2.8475 52.375 3.1875 C54.685 3.1875 56.995 3.1875 59.375 3.1875 C59.375 2.8575 59.375 2.5275 59.375 2.1875 C57.065 2.1875 54.755 2.1875 52.375 2.1875 Z M-76.625 3.1875 C-76.625 3.5175 -76.625 3.8475 -76.625 4.1875 C-74.645 4.1875 -72.665 4.1875 -70.625 4.1875 C-70.625 3.8575 -70.625 3.5275 -70.625 3.1875 C-72.605 3.1875 -74.585 3.1875 -76.625 3.1875 Z M70.375 3.1875 C70.375 3.5175 70.375 3.8475 70.375 4.1875 C72.025 4.1875 73.675 4.1875 75.375 4.1875 C75.375 3.8575 75.375 3.5275 75.375 3.1875 C73.725 3.1875 72.075 3.1875 70.375 3.1875 Z M-89.625 4.1875 C-85.625 5.1875 -85.625 5.1875 -85.625 5.1875 Z M84.375 4.1875 C88.375 5.1875 88.375 5.1875 88.375 5.1875 Z M-101.625 5.1875 C-97.625 6.1875 -97.625 6.1875 -97.625 6.1875 Z M96.375 5.1875 C100.375 6.1875 100.375 6.1875 100.375 6.1875 Z M-112.625 6.1875 C-108.625 7.1875 -108.625 7.1875 -108.625 7.1875 Z M321.375 65.1875 C321.375 65.5175 321.375 65.8475 321.375 66.1875 C328.305 66.1875 335.235 66.1875 342.375 66.1875 C342.375 65.8575 342.375 65.5275 342.375 65.1875 C335.445 65.1875 328.515 65.1875 321.375 65.1875 Z M449.375 65.1875 C449.375 65.5175 449.375 65.8475 449.375 66.1875 C454.985 66.1875 460.595 66.1875 466.375 66.1875 C466.375 65.8575 466.375 65.5275 466.375 65.1875 C460.765 65.1875 455.155 65.1875 449.375 65.1875 Z M286.375 66.1875 C286.375 66.5175 286.375 66.8475 286.375 67.1875 C290.335 67.1875 294.295 67.1875 298.375 67.1875 C298.375 66.8575 298.375 66.5275 298.375 66.1875 C294.415 66.1875 290.455 66.1875 286.375 66.1875 Z M485.375 66.1875 C485.375 66.5175 485.375 66.8475 485.375 67.1875 C488.675 67.1875 491.975 67.1875 495.375 67.1875 C495.375 66.8575 495.375 66.5275 495.375 66.1875 C492.075 66.1875 488.775 66.1875 485.375 66.1875 Z M258.375 67.1875 C258.375 67.5175 258.375 67.8475 258.375 68.1875 C261.675 68.1875 264.975 68.1875 268.375 68.1875 C268.375 67.8575 268.375 67.5275 268.375 67.1875 C265.075 67.1875 261.775 67.1875 258.375 67.1875 Z M509.375 67.1875 C509.375 67.5175 509.375 67.8475 509.375 68.1875 C512.015 68.1875 514.655 68.1875 517.375 68.1875 C517.375 67.8575 517.375 67.5275 517.375 67.1875 C514.735 67.1875 512.095 67.1875 509.375 67.1875 Z M233.375 68.1875 C233.375 68.5175 233.375 68.8475 233.375 69.1875 C236.345 69.1875 239.315 69.1875 242.375 69.1875 C242.375 68.8575 242.375 68.5275 242.375 68.1875 C239.405 68.1875 236.435 68.1875 233.375 68.1875 Z M528.375 68.1875 C528.375 68.5175 528.375 68.8475 528.375 69.1875 C530.685 69.1875 532.995 69.1875 535.375 69.1875 C535.375 68.8575 535.375 68.5275 535.375 68.1875 C533.065 68.1875 530.755 68.1875 528.375 68.1875 Z M211.375 69.1875 C211.375 69.5175 211.375 69.8475 211.375 70.1875 C214.015 70.1875 216.655 70.1875 219.375 70.1875 C219.375 69.8575 219.375 69.5275 219.375 69.1875 C216.735 69.1875 214.095 69.1875 211.375 69.1875 Z M545.375 69.1875 C545.375 69.5175 545.375 69.8475 545.375 70.1875 C547.025 70.1875 548.675 70.1875 550.375 70.1875 C550.375 69.8575 550.375 69.5275 550.375 69.1875 C548.725 69.1875 547.075 69.1875 545.375 69.1875 Z M559.375 70.1875 C559.375 70.5175 559.375 70.8475 559.375 71.1875 C561.025 71.1875 562.675 71.1875 564.375 71.1875 C564.375 70.8575 564.375 70.5275 564.375 70.1875 C562.725 70.1875 561.075 70.1875 559.375 70.1875 Z M572.375 71.1875 C572.375 71.5175 572.375 71.8475 572.375 72.1875 C574.025 72.1875 575.675 72.1875 577.375 72.1875 C577.375 71.8575 577.375 71.5275 577.375 71.1875 C575.725 71.1875 574.075 71.1875 572.375 71.1875 Z M-413.625 198.1875 C-412.625 200.1875 -412.625 200.1875 -412.625 200.1875 Z M-412.625 206.1875 C-411.625 210.1875 -411.625 210.1875 -411.625 210.1875 Z M-412.625 240.1875 C-411.625 244.1875 -411.625 244.1875 -411.625 244.1875 Z M-413.625 250.1875 C-412.625 253.1875 -412.625 253.1875 -412.625 253.1875 Z M-414.625 257.1875 C-413.625 259.1875 -413.625 259.1875 -413.625 259.1875 Z M-415.625 263.1875 C-414.625 265.1875 -414.625 265.1875 -414.625 265.1875 Z M16.375 281.1875 C17.375 283.1875 17.375 283.1875 17.375 283.1875 Z M15.375 289.1875 C15.375 290.8375 15.375 292.4875 15.375 294.1875 C15.705 294.1875 16.035 294.1875 16.375 294.1875 C16.375 292.5375 16.375 290.8875 16.375 289.1875 C16.045 289.1875 15.715 289.1875 15.375 289.1875 Z M15.375 301.1875 C15.375 303.1675 15.375 305.1475 15.375 307.1875 C15.705 307.1875 16.035 307.1875 16.375 307.1875 C16.375 305.2075 16.375 303.2275 16.375 301.1875 C16.045 301.1875 15.715 301.1875 15.375 301.1875 Z M16.375 314.1875 C17.375 316.1875 17.375 316.1875 17.375 316.1875 Z M17.375 320.1875 C18.375 322.1875 18.375 322.1875 18.375 322.1875 Z " fill="#EE6809" transform="translate(511.625,23.8125)"/>
<path d="M0 0 C3.58552881 1.63687185 4.79315055 2.68972583 7 6 C8.05863986 13.39667068 6.17423974 20.23959339 4.0703125 27.26953125 C3.76417023 28.33255463 3.45802795 29.395578 3.14260864 30.49081421 C2.14844532 33.93489228 1.13663876 37.37351921 0.125 40.8125 C-0.91115735 44.38869134 -1.94247121 47.96625563 -2.97338867 51.54396057 C-3.6628555 53.93601139 -4.3537731 56.32764454 -5.04614258 58.71885681 C-8.28730056 69.92891076 -11.34896041 81.18305689 -14.35540771 92.45791626 C-14.64523529 93.54476212 -14.64523529 93.54476212 -14.94091797 94.65356445 C-15.12681488 95.35074081 -15.31271179 96.04791718 -15.50424194 96.76622009 C-16.02266634 98.70254877 -16.54731461 100.63720788 -17.07226562 102.57177734 C-17.65900692 104.73994085 -18.2323839 106.91180408 -18.78710938 109.08837891 C-19.02751953 109.98347168 -19.26792969 110.87856445 -19.515625 111.80078125 C-19.80614746 112.92673706 -19.80614746 112.92673706 -20.10253906 114.07543945 C-21.26686675 116.57228253 -22.67440205 117.57243551 -25 119 C-29.72676923 119.55002406 -33.36193355 118.3899295 -37.375 115.9375 C-42.78013553 109.88889596 -43.87451263 101.70979382 -45.4453125 93.96484375 C-45.66065643 92.92735489 -45.87600037 91.88986603 -46.09786987 90.82093811 C-46.5495325 88.63897606 -46.99814131 86.45637987 -47.44384766 84.27319336 C-48.12385936 80.94308586 -48.8130445 77.61498112 -49.50390625 74.28710938 C-49.9432441 72.1589647 -50.38206379 70.03071298 -50.8203125 67.90234375 C-51.02447784 66.91362778 -51.22864319 65.9249118 -51.43899536 64.90623474 C-52.44913259 59.94889186 -53.35237599 55.01799945 -54 50 C-54.66 50 -55.32 50 -56 50 C-56.10344727 51.05864258 -56.20689453 52.11728516 -56.31347656 53.20800781 C-57.05950202 59.1362632 -58.54610156 64.88010653 -59.984375 70.671875 C-60.28184631 71.8718512 -60.57931763 73.07182739 -60.88580322 74.3081665 C-61.51507633 76.83360211 -62.1472748 79.35831038 -62.78222656 81.88232422 C-63.4287862 84.46627926 -64.06869495 87.05065963 -64.69628906 89.63916016 C-65.60744525 93.38402158 -66.5429716 97.12201796 -67.484375 100.859375 C-67.76166443 102.01669128 -68.03895386 103.17400757 -68.324646 104.36639404 C-70.37342828 112.32662238 -70.37342828 112.32662238 -73.53613281 115.72558594 C-78.16552467 118.12009897 -82.94201137 117.71357516 -88 117 C-91.07365786 115.19196596 -92.43019732 114.13960536 -94 111 C-94.25920207 105.93242311 -93.61628776 101.37752358 -92.41796875 96.48046875 C-92.24814484 95.76076401 -92.07832092 95.04105927 -91.90335083 94.29954529 C-91.34019438 91.9266623 -90.76461865 89.55702312 -90.1875 87.1875 C-89.78469698 85.51417276 -89.38194738 83.84083266 -88.97924805 82.16748047 C-86.08421414 70.20142497 -83.0893893 58.25928784 -80.01235962 46.33877563 C-79.55273598 44.55653902 -79.09560442 42.77365749 -78.64120483 40.99008179 C-76.40018726 32.21983878 -74.01721418 23.57457075 -70.85546875 15.0859375 C-70.6150032 14.44008698 -70.37453766 13.79423645 -70.12678528 13.1288147 C-66.728784 4.34460978 -66.728784 4.34460978 -63.3125 1.6875 C-56.89686642 -0.21985052 -52.01037993 1.0440246 -46.078125 3.63671875 C-40.49689367 7.29809043 -39.00471577 12.320903 -37.45703125 18.44140625 C-37.24310226 19.24609848 -37.02917328 20.05079071 -36.8087616 20.87986755 C-36.13163295 23.43783155 -35.47187854 25.99990976 -34.8125 28.5625 C-34.35855795 30.28871061 -33.90349107 32.01462584 -33.44726562 33.74023438 C-31.93274391 39.48535283 -30.43617099 45.23472308 -29 51 C-28.34 51 -27.68 51 -27 51 C-26.92394531 49.82566406 -26.84789062 48.65132812 -26.76953125 47.44140625 C-26.05857067 41.07762423 -24.16445034 35.04465851 -22.29907227 28.94311523 C-21.68863433 26.94121996 -21.09453955 24.93497685 -20.50195312 22.92773438 C-12.97673772 -2.20657079 -12.97673772 -2.20657079 0 0 Z " fill="#FDFDFD" transform="translate(249,126)"/>
<path d="M0 0 C1.96973054 1.85640358 3.39196151 3.79469007 5 6 C5.721875 5.71125 6.44375 5.4225 7.1875 5.125 C8.5796875 4.568125 8.5796875 4.568125 10 4 C10.845625 3.608125 11.69125 3.21625 12.5625 2.8125 C15.3485583 1.8838139 16.29666974 1.97115975 19 3 C27.00407828 11.46840326 26.56278221 24.08751165 26.31640625 34.97265625 C25.42251235 54.30544943 18.3164003 72.72499165 3.9375 86 C2.64927548 87.03108381 1.33758814 88.0338146 0 89 C-0.88365234 89.64775391 -0.88365234 89.64775391 -1.78515625 90.30859375 C-7.97280611 94.10526213 -14.97859096 93.81205548 -22 93 C-25.05690562 92.09550419 -27.40668123 90.83236843 -30 89 C-31.03125 88.34 -32.0625 87.68 -33.125 87 C-39.81048063 81.06343933 -43.37156074 70.73268721 -44 62 C-44.39493215 43.36413908 -36.46513698 24.80800585 -23.69140625 11.44921875 C-17.93700372 6.21262893 -8.35306493 -1.67061299 0 0 Z " fill="#FDFDFD" transform="translate(775,152)"/>
<path d="M0 0 C1.97610386 2.04424538 3 3.1176825 3 6 C5.89891718 7.35475399 5.89891718 7.35475399 8.12109375 5.96875 C9.66350762 4.99076077 11.20517699 4.01159637 12.74609375 3.03125 C15 2 15 2 17.15625 2.2265625 C20.23361361 3.51749045 21.23698729 5.15643112 23 8 C25.62684818 15.34281327 26.5227675 22.36499114 26.4375 30.125 C26.42847656 31.12345947 26.41945313 32.12191895 26.41015625 33.15063477 C25.96075253 52.63571883 19.67604057 70.65456391 5.6875 84.5625 C-1.8834047 91.42913449 -8.28370754 93.44030682 -18.41796875 93.3359375 C-25.52989144 92.66895238 -29.99934706 89.32716554 -34.8125 84.25 C-42.86741884 74.3822572 -44.0010373 63.33960224 -43 51 C-40.19911332 34.17780708 -32.29444563 17.98988733 -18.5 7.625 C-5.51379736 -1.26029654 -5.51379736 -1.26029654 0 0 Z " fill="#FDFDFD" transform="translate(568,152)"/>
<path d="M0 0 C0.72316406 0.36222656 1.44632813 0.72445312 2.19140625 1.09765625 C11.2157734 6.14924697 16.78153608 14.34460825 20 24 C20.95600447 34.31693653 20.94458905 44.69946344 16 54 C15.525625 54.8971875 15.05125 55.794375 14.5625 56.71875 C7.18974696 69.3375004 -4.31956094 80.5665408 -18.5 84.9375 C-25.14725728 86.45687309 -32.50976554 87.65120197 -38.8125 84.4375 C-44.6888472 80.43538344 -49.00051407 74.82177553 -51 68 C-50.64535626 60.48598574 -48.55118216 53.99830974 -46.0625 46.9375 C-40.94788741 33.79036346 -40.94788741 33.79036346 -40 20 C-40.825 19.34 -41.65 18.68 -42.5 18 C-45 16 -45 16 -45.5625 12.75 C-44.79298145 7.61987631 -43.48925539 3.00988602 -39.31640625 -0.359375 C-28.21504679 -6.948569 -11.11882905 -5.79699634 0 0 Z " fill="#FDFDFD" transform="translate(647,158)"/>
<path d="M0 0 C10.03625075 5.83927316 11.91654905 16.76679869 14.8684082 27.26928711 C15.29641517 29.00919801 15.29641517 29.00919801 16.4375 30 C16.72471924 29.29915283 17.01193848 28.59830566 17.30786133 27.8762207 C18.61776004 24.68659228 19.93381346 21.49953863 21.25 18.3125 C21.70181641 17.20970703 22.15363281 16.10691406 22.61914062 14.97070312 C23.28139648 13.3706543 23.28139648 13.3706543 23.95703125 11.73828125 C24.36026611 10.75899658 24.76350098 9.77971191 25.17895508 8.77075195 C28.35878348 1.77019472 28.35878348 1.77019472 31.3359375 -0.35546875 C33.91395288 -1.14612403 35.44857113 -0.92882771 38.0625 -0.3125 C38.83851563 -0.14363281 39.61453125 0.02523437 40.4140625 0.19921875 C42.4375 1 42.4375 1 44.4375 4 C45.44592994 13.49534261 43.85204373 22.14212831 41.26171875 31.23046875 C40.9358931 32.42754959 40.61006744 33.62463043 40.27436829 34.85798645 C39.24111558 38.63927037 38.18362779 42.41325127 37.125 46.1875 C36.42610471 48.72806788 35.72882585 51.269081 35.03320312 53.81054688 C33.4649442 59.52820565 31.88314185 65.24181344 30.27914429 70.94955444 C29.71040183 73.01089783 29.16024552 75.07744596 28.62734985 77.14834595 C28.37238739 78.13362274 28.11742493 79.11889954 27.85473633 80.1340332 C27.63465408 81.00800247 27.41457184 81.88197174 27.18782043 82.78242493 C26.4375 85 26.4375 85 24.1875 87.6875 C20.57344269 89.41239099 18.41040057 89.54798628 14.4375 89 C8.94779239 86.95142986 6.44151496 84.04874035 3.4375 79 C2.59217028 76.29557003 1.89327905 73.73066038 1.296875 70.9765625 C1.12496643 70.23038666 0.95305786 69.48421082 0.77593994 68.71542358 C0.2347858 66.35442593 -0.28908931 63.98998735 -0.8125 61.625 C-1.17854828 60.01406363 -1.54572477 58.40338318 -1.9140625 56.79296875 C-2.80994663 52.86481773 -3.69036604 48.93348918 -4.5625 45 C-4.75360352 45.71430176 -4.94470703 46.42860352 -5.14160156 47.16455078 C-6.98445948 54.04699309 -8.84068399 60.92569979 -10.70361328 67.80273438 C-11.41009916 70.43267727 -12.10008363 73.06556317 -12.77734375 75.703125 C-13.09832031 76.91484375 -13.41929687 78.1265625 -13.75 79.375 C-14.01167969 80.39335937 -14.27335938 81.41171875 -14.54296875 82.4609375 C-15.764516 85.50310499 -16.94740775 87.02262323 -19.5625 89 C-23.29510967 89.8065997 -26.80617858 89.63996587 -30.5625 89 C-33.95305175 86.69442481 -35.2162831 85.28255487 -36.28125 81.33740234 C-36.62684985 77.23640411 -35.89094658 73.68231912 -34.9375 69.7265625 C-34.75527893 68.93380417 -34.57305786 68.14104584 -34.38531494 67.32426453 C-33.79019359 64.75473707 -33.17747727 62.1898419 -32.5625 59.625 C-32.14541534 57.85573469 -31.72842358 56.08644747 -31.31152344 54.31713867 C-19.89808621 6.27385662 -19.89808621 6.27385662 -12.5625 0 C-8.44402697 -2.05923652 -4.28569945 -1.20300335 0 0 Z " fill="#FDFDFD" transform="translate(833.5625,154)"/>
<path d="M0 0 C2.80232906 2.14795276 3.87631609 3.29879987 4.49609375 6.8125 C4.37070647 13.63356794 3.62261767 19.7006384 1.65625 26.24609375 C0.94079535 29.24844809 0.89129751 31.92462534 1 35 C10.78059421 26.24810906 18.44580673 18.71266186 24.2890625 6.79296875 C26.05713461 3.90673231 26.82350502 2.97972355 30 2 C34.2372441 1.43724102 38.4247452 1.42581655 42 4 C43.69506491 7.39012982 43.6560737 10.35879099 43 14 C36.82722168 29.84597361 25.23185932 43.71835261 11 53 C11.60757835 57.24961582 13.10368231 60.39690458 15.16015625 64.1484375 C15.79537508 65.33048573 16.43012631 66.51278534 17.06445312 67.6953125 C18.06165853 69.5371374 19.06319212 71.37625689 20.07348633 73.2109375 C21.05287253 74.99590535 22.01368168 76.78994088 22.97265625 78.5859375 C23.55281494 79.6486084 24.13297363 80.7112793 24.73071289 81.80615234 C26.19177705 85.4825596 26.40351493 88.07688955 26 92 C23.29096504 95.3506485 21.74061752 96.68800252 17.515625 97.4453125 C10.86094893 97.74063836 10.86094893 97.74063836 8.05200195 95.32421875 C5.7940207 92.76669566 4.35856354 90.27941442 2.80078125 87.24609375 C1.94709961 85.59383789 1.94709961 85.59383789 1.07617188 83.90820312 C0.49416016 82.76287109 -0.08785156 81.61753906 -0.6875 80.4375 C-1.28111328 79.28830078 -1.87472656 78.13910156 -2.48632812 76.95507812 C-6.83899824 68.48300528 -6.83899824 68.48300528 -8 65 C-8.66 65 -9.32 65 -10 65 C-10.0928125 66.5159375 -10.0928125 66.5159375 -10.1875 68.0625 C-10.74669052 72.39622653 -11.8955288 76.52346717 -13.1875 80.6875 C-13.76564453 82.58048828 -13.76564453 82.58048828 -14.35546875 84.51171875 C-16.39650133 88.8410349 -18.02978843 90.37816217 -22 93 C-25.84585332 93.73071213 -29.40759486 92.80947261 -32.875 91.046875 C-35.59235445 89.08724439 -36.89686157 87.33199992 -37.88525391 84.15039062 C-38.53667192 78.16303826 -36.09214461 72.35231127 -34.3359375 66.71875 C-33.94173669 65.4198334 -33.5487433 64.12054983 -33.15689087 62.82092285 C-32.12262917 59.40328767 -31.07104413 55.99122046 -30.01599121 52.57995605 C-29.17014006 49.8352488 -28.3362826 47.08697475 -27.50319481 44.33837128 C-25.0402969 36.2135537 -22.55272108 28.09711561 -20 20 C-19.79673347 19.33469269 -19.59346695 18.66938538 -19.38404083 17.98391724 C-18.75802967 15.93663878 -18.11601562 13.89493592 -17.47119141 11.85351562 C-17.09378815 10.63716431 -16.71638489 9.42081299 -16.32754517 8.16760254 C-14.6759901 4.22689291 -12.59585277 2.15561753 -9.1875 -0.3125 C-5.82743499 -1.36852043 -3.38247877 -0.84561969 0 0 Z " fill="#FDFDFD" transform="translate(376,152)"/>
<path d="M0 0 C1.23943359 0.05349609 2.47886719 0.10699219 3.75585938 0.16210938 C13.79220158 0.78565306 13.79220158 0.78565306 16.87890625 3.6484375 C19.14362183 7.23204777 19.28620918 10.2485946 18.5625 14.3125 C16.6419702 19.77084786 16.6419702 19.77084786 13.29418945 21.45068359 C10.42978525 22.35436997 8.03965714 22.62611484 5.04296875 22.7265625 C3.5105957 22.78457031 3.5105957 22.78457031 1.94726562 22.84375 C0.89216797 22.8746875 -0.16292969 22.905625 -1.25 22.9375 C-2.32443359 22.97617188 -3.39886719 23.01484375 -4.50585938 23.0546875 C-7.14946539 23.14868238 -9.79345876 23.23166849 -12.4375 23.3125 C-13.0975 27.2725 -13.7575 31.2325 -14.4375 35.3125 C-10.40337652 36.1193247 -7.00412237 36.42947964 -2.9375 36.5625 C1.23030855 36.88346374 3.24954496 37.12354602 6.875 39.3125 C9.18813896 43.42474705 9.33280687 46.69903168 8.5625 51.3125 C7.31997483 54.23243415 6.47896428 55.74154225 3.79199219 57.41552734 C1.13977397 58.48257177 -1.00427363 58.63139245 -3.859375 58.7265625 C-4.88417969 58.76523438 -5.90898437 58.80390625 -6.96484375 58.84375 C-8.56005859 58.89015625 -8.56005859 58.89015625 -10.1875 58.9375 C-11.80591797 58.99550781 -11.80591797 58.99550781 -13.45703125 59.0546875 C-16.11701775 59.14884631 -18.7769994 59.23447387 -21.4375 59.3125 C-23.17002349 62.52417399 -23.7359943 64.63107026 -23.4375 68.3125 C-21.82668551 69.92331449 -20.04208101 69.47807926 -17.81640625 69.5234375 C-16.88119141 69.55179687 -15.94597656 69.58015625 -14.98242188 69.609375 C-12.99823375 69.66135111 -11.01382941 69.70565436 -9.02929688 69.7421875 C-8.09279297 69.773125 -7.15628906 69.8040625 -6.19140625 69.8359375 C-5.32845947 69.85575684 -4.4655127 69.87557617 -3.57641602 69.89599609 C-2.87057373 70.03344238 -2.16473145 70.17088867 -1.4375 70.3125 C1.53440438 74.77035657 1.06778391 79.08357708 0.5625 84.3125 C-1.04048651 88.05280185 -2.03487698 89.04408465 -5.4375 91.3125 C-7.94604492 91.57128906 -7.94604492 91.57128906 -10.91796875 91.578125 C-12.00013672 91.58070313 -13.08230469 91.58328125 -14.19726562 91.5859375 C-15.32841797 91.57820313 -16.45957031 91.57046875 -17.625 91.5625 C-18.73681641 91.57023437 -19.84863281 91.57796875 -20.99414062 91.5859375 C-29.66591655 91.56540043 -37.56655364 91.22470966 -44.4375 85.3125 C-48.59964742 78.37558764 -47.91508913 71.33848815 -46.75 63.5625 C-46.18759518 59.28822336 -47.44625577 57.12905143 -49.4375 53.3125 C-49.4375 47.35031609 -47.16621413 42.84096618 -43.4375 38.3125 C-42.550625 37.8175 -41.66375 37.3225 -40.75 36.8125 C-38.08429422 35.08339355 -37.89237671 34.45748007 -37.0625 31.5 C-36.06493594 26.38042596 -36.51263227 22.69980159 -39.4375 18.3125 C-39.69310299 13.83944774 -38.77543899 10.02893065 -36.875 6 C-27.52685507 -4.30692903 -12.59010985 -0.75634365 0 0 Z " fill="#FDFDFD" transform="translate(462.4375,152.6875)"/>
<path d="M0 0 C1.23943359 0.05349609 2.47886719 0.10699219 3.75585938 0.16210938 C13.79297998 0.78570142 13.79297998 0.78570142 16.87890625 3.61328125 C19.41053715 7.67211408 19.32669737 10.68532692 18.5625 15.3125 C17.24148033 18.58028549 16.46307563 19.87457075 13.29418945 21.41552734 C10.42076123 22.35904109 8.05943173 22.62545201 5.04296875 22.7265625 C3.5105957 22.78457031 3.5105957 22.78457031 1.94726562 22.84375 C0.89216797 22.8746875 -0.16292969 22.905625 -1.25 22.9375 C-2.32443359 22.97617188 -3.39886719 23.01484375 -4.50585938 23.0546875 C-7.14946539 23.14868238 -9.79345876 23.23166849 -12.4375 23.3125 C-13.0975 27.2725 -13.7575 31.2325 -14.4375 35.3125 C-10.40337652 36.1193247 -7.00412237 36.42947964 -2.9375 36.5625 C1.18264693 36.88445939 3.26488955 37.13842596 6.875 39.25 C9.29134465 43.63521806 9.44703878 47.41537166 8.5625 52.3125 C6.45745409 55.86930172 5.47843192 57.00718936 1.5625 58.3125 C-0.28216442 58.46139747 -2.13107275 58.5604101 -3.98046875 58.62890625 C-5.05361328 58.67080078 -6.12675781 58.71269531 -7.23242188 58.75585938 C-8.35197266 58.79517578 -9.47152344 58.83449219 -10.625 58.875 C-11.75615234 58.91818359 -12.88730469 58.96136719 -14.05273438 59.00585938 C-16.84753354 59.11199099 -19.64242162 59.21404385 -22.4375 59.3125 C-22.63162181 60.79081221 -22.81762131 62.27019316 -23 63.75 C-23.10441406 64.57371094 -23.20882812 65.39742188 -23.31640625 66.24609375 C-23.35636719 66.92800781 -23.39632812 67.60992187 -23.4375 68.3125 C-21.82924114 69.92075886 -20.0727489 69.44057356 -17.8515625 69.453125 C-16.45550781 69.48212891 -16.45550781 69.48212891 -15.03125 69.51171875 C-13.0600999 69.54543579 -11.08862421 69.56379161 -9.1171875 69.56640625 C-1.97967617 69.75371663 -1.97967617 69.75371663 0.73046875 72.546875 C2.07496925 77.01591891 1.67026159 80.81498794 0.5625 85.3125 C-1.26117488 88.19508287 -2.40685582 89.79717791 -5.4375 91.3125 C-9.28623129 91.55692258 -13.14438766 91.49771452 -17 91.5 C-18.06025391 91.51224609 -19.12050781 91.52449219 -20.21289062 91.53710938 C-29.22339085 91.55378519 -37.30446339 91.42176426 -44.0625 84.9453125 C-47.42876454 80.94787336 -47.73399061 76.6018234 -47.65625 71.51953125 C-47.40738123 69.00862311 -46.8104848 66.69373203 -46.1875 64.25 C-45.33855264 60.7771338 -45.33855264 60.7771338 -46.30078125 57.47265625 C-46.89439453 56.65087891 -46.89439453 56.65087891 -47.5 55.8125 C-49.10281167 53.52741038 -49.46899882 52.66911166 -49.21875 49.8359375 C-47.7670324 44.48667373 -45.96923016 40.73893012 -41.4375 37.3125 C-39.125 36.5 -39.125 36.5 -37.4375 36.3125 C-37.293125 35.095625 -37.14875 33.87875 -37 32.625 C-36.70407397 30.19754877 -36.34391201 27.89135406 -35.8125 25.5 C-35.23147507 23.14395101 -35.23147507 23.14395101 -36.4375 20.3125 C-37.0975 20.3125 -37.7575 20.3125 -38.4375 20.3125 C-40.09312622 14.45413029 -39.02018449 10.85385577 -36.0703125 5.55859375 C-28.47535706 -4.88901241 -11.13263724 -0.66878682 0 0 Z " fill="#FDFDFD" transform="translate(718.4375,152.6875)"/>
<path d="M0 0 C4.63885609 4.09945422 8.14062339 8.5282202 9.03125 14.79296875 C9.34924222 20.42938081 9.07607293 23.67317315 5.25 28 C4.08747132 29.15078596 2.90525272 30.2828189 1.6875 31.375 C1.3575 31.705 1.0275 32.035 0.6875 32.375 C-3.58309497 32.86776096 -5.60606227 32.89305433 -9.125 30.3125 C-11.66681667 26.89920332 -12.42418941 24.49353093 -13.3125 20.375 C-19.59623173 22.83193027 -21.10875153 26.0068497 -23.75024414 31.97875977 C-25.89247998 36.98916199 -27.6625299 42.10189686 -29.25 47.3125 C-29.56723022 48.33947998 -29.56723022 48.33947998 -29.89086914 49.38720703 C-31.25420041 54.17365379 -31.49587914 58.40153535 -31.3125 63.375 C-27.98049815 63.79271804 -27.98049815 63.79271804 -24.3125 63.375 C-22.03017582 61.16811693 -22.03017582 61.16811693 -20.3125 58.375 C-16.68532534 54.2798028 -13.69157565 52.66631539 -8.25 52 C-5.3125 52.375 -5.3125 52.375 -2.9375 53.8125 C-0.4885155 57.67436018 -0.61751761 60.92567974 -1.3125 65.375 C-4.2289028 75.40121318 -11.37697734 84.09572912 -20.3125 89.375 C-26.25860971 91.95538723 -32.07562708 91.85538135 -38.3125 90.375 C-45.71607807 87.07309558 -50.14197064 81.93840947 -53.0546875 74.47265625 C-57.65985988 59.04848299 -52.32070114 39.28953889 -45.3125 25.375 C-44.8484375 24.42238281 -44.384375 23.46976563 -43.90625 22.48828125 C-37.85156937 10.68487459 -30.25533411 3.3179049 -17.8125 -1.5625 C-11.57294689 -3.41780075 -5.8143615 -2.85232828 0 0 Z " fill="#FDFDFD" transform="translate(339.3125,153.625)"/>
<path d="M0 0 C2.60795026 1.64712648 3.73137784 2.86132218 4.44596863 5.89044189 C5.18813135 11.75606234 4.57514381 16.49048027 3.05078125 22.171875 C2.83689255 23.01615051 2.62300385 23.86042603 2.40263367 24.73028564 C1.72024615 27.40744298 1.01644612 30.078441 0.3125 32.75 C-0.14131508 34.52569946 -0.59379969 36.3017395 -1.04492188 38.078125 C-3.44805955 47.46825381 -6.02150165 56.77394551 -9 66 C-5.12534693 67.93732654 0.03324394 67.29067825 4.34765625 67.34179688 C10.37404271 67.55316279 10.37404271 67.55316279 13.5390625 69.8125 C15.76424643 73.14432621 15.67345551 76.19264263 15 80 C13.44767427 84.74784504 12.22764984 88.18156677 8 91 C3.64222138 91.52474619 -0.73913121 91.46298845 -5.125 91.5 C-6.32382812 91.54125 -7.52265625 91.5825 -8.7578125 91.625 C-16.78937409 91.69545229 -22.01721223 90.52649505 -28 85 C-32.04996036 80.0154334 -34.15081154 75.59683733 -33.77490234 69.12402344 C-32.99536926 62.83730252 -31.11347015 56.87746314 -29.2890625 50.828125 C-28.73585831 48.9672525 -28.73585831 48.9672525 -28.17147827 47.06878662 C-27.3946728 44.45856831 -26.61244872 41.85005615 -25.82617188 39.24267578 C-24.82202528 35.91140747 -23.83112522 32.57637111 -22.84415627 29.23997879 C-21.89514933 26.03813268 -20.93543217 22.83953155 -19.9765625 19.640625 C-19.62332916 18.4478595 -19.27009583 17.25509399 -18.90615845 16.02618408 C-18.56925995 14.9144281 -18.23236145 13.80267212 -17.88525391 12.65722656 C-17.59292877 11.68287659 -17.30060364 10.70852661 -16.99942017 9.70465088 C-15.44510683 5.49833697 -13.98646285 2.6725883 -10.25 0.125 C-6.2771799 -1.25020696 -4.03695972 -1.1213777 0 0 Z " fill="#FDFDFD" transform="translate(506,152)"/>
<path d="M0 0 C3.36953748 2.54587276 4.78727473 4.06870772 5.73388672 8.21289062 C6.02604165 12.37060369 5.47387121 15.43610634 4.4453125 19.46875 C4.26851456 20.17432037 4.09171661 20.87989075 3.90956116 21.60684204 C3.32830829 23.90827882 2.72753554 26.20405128 2.125 28.5 C1.71347261 30.10257968 1.30242715 31.70528318 0.8918457 33.30810547 C-1.85587928 43.9562132 -4.76750374 54.55824076 -7.8125 65.125 C-8.17263184 66.37861328 -8.53276367 67.63222656 -8.90380859 68.92382812 C-14.30566425 87.30566425 -14.30566425 87.30566425 -18.1875 91.1875 C-23.0570702 92.59426472 -27.59025261 92.28549722 -32.1015625 89.87890625 C-34.56847245 88.16831232 -36.63741656 86.72516688 -38 84 C-37.59143641 75.66452878 -35.19018004 67.86446402 -32.88671875 59.89453125 C-32.47141132 58.44212746 -32.05644438 56.98962628 -31.64179993 55.53703308 C-30.77501993 52.50737208 -29.90268999 49.47937719 -29.02661133 46.45239258 C-27.90826451 42.585872 -26.80623732 38.71491331 -25.70859051 34.84247303 C-24.85718004 31.84709973 -23.99600712 28.85459903 -23.13202858 25.86282921 C-22.72173403 24.43690928 -22.31469532 23.01004808 -21.9110775 21.58222389 C-21.34489794 19.58406167 -20.76534063 17.59024292 -20.18237305 15.59692383 C-19.85673874 14.46491043 -19.53110443 13.33289703 -19.19560242 12.1665802 C-17.32966963 7.22461477 -14.99731362 2.92038671 -10.125 0.5625 C-6.37635885 -1.09274415 -3.94637607 -1.49085318 0 0 Z " fill="#FDFDFD" transform="translate(283,153)"/>
<path d="M0 0 C1.84233661 14.98765728 0.60907757 30.05961981 -8.375 42.75 C-11 45 -11 45 -14.625 45.5 C-18 45 -18 45 -21 43 C-24.23099837 33.30700488 -21.10463952 22.65598876 -16.8125 13.8125 C-13.50881028 7.27693991 -8.3920792 -2.51762376 0 0 Z " fill="#EE6809" transform="translate(570,175)"/>
<path d="M0 0 C3.73758051 7.47516102 1.59070704 21.44817269 -0.625 29.125 C-2.72017921 34.93743264 -5.55990748 41.55990748 -10 46 C-16.21746555 46.58655335 -16.21746555 46.58655335 -19.19921875 44.3515625 C-22.65202923 39.84268634 -21.5729707 34.40482672 -21 29 C-18.99874875 18.82795965 -14.75838452 8.23426168 -6.25 1.8125 C-3 0 -3 0 0 0 Z " fill="#EE6809" transform="translate(776,174)"/>
<path d="M0 0 C4.65597511 0.15550408 8.26286055 1.40708349 11.875 4.3125 C17.2202713 11.07269605 18.68051672 16.50021271 18 25 C16.64416854 34.37162625 11.38416614 40.83330613 3.99609375 46.55078125 C1.51961501 48.10727221 -0.35654219 49.0347815 -3.3125 48.875 C-5 48 -5 48 -7 46 C-6.67386719 45.06800781 -6.34773437 44.13601562 -6.01171875 43.17578125 C1.57107682 23.64009863 1.57107682 23.64009863 -0.5 3.8125 C-0.995 3.214375 -1.49 2.61625 -2 2 C-1.34 1.34 -0.68 0.68 0 0 Z " fill="#EE6809" transform="translate(627,172)"/>
</svg>
