<svg xmlns="http://www.w3.org/2000/svg" width="640" height="282" viewBox="0 0 640 282" version="1.1"><path d="M 315.002 146.202 C 315.003 180.660, 315.178 184.851, 316.752 188 C 318.936 192.372, 325.720 196, 331.712 196 L 336 196 336 190 C 336 184.057, 335.973 184, 333.122 184 C 331.540 184, 329.745 183.398, 329.135 182.663 C 328.378 181.750, 327.942 169.756, 327.763 144.913 L 327.500 108.500 321.250 108.202 L 315 107.905 315.002 146.202 M 419 151.500 L 419 195 425.500 195 L 432 195 432 180.500 L 432 166 434.777 166 C 439.198 166, 441.240 168.134, 450.057 181.970 L 458.361 195 465.740 195 C 471.371 195, 472.942 194.704, 472.376 193.750 C 471.968 193.063, 467.193 185.838, 461.765 177.696 C 456.337 169.554, 451.644 162.235, 451.336 161.433 C 451 160.558, 454.330 155.275, 459.638 148.259 C 464.512 141.817, 469.088 135.748, 469.807 134.773 C 471.026 133.118, 470.624 133, 463.762 133 L 456.411 133 450.142 141.464 C 442.589 151.663, 438.837 155, 434.923 155 L 432 155 432 131.500 L 432 108 425.500 108 L 419 108 419 151.500 M 47 124.440 L 47 132.879 43.250 133.190 L 39.500 133.500 39.198 138.750 L 38.895 144 42.948 144 L 47 144 47 160.634 C 47 179.653, 47.850 183.707, 52.963 189.081 C 56.969 193.292, 65.438 196.331, 71.720 195.812 L 75.500 195.500 75.800 189.750 L 76.100 184 71.566 184 C 67.970 184, 66.355 183.396, 63.766 181.084 L 60.500 178.169 60.184 161.084 L 59.868 144 67.486 144 L 75.105 144 74.802 138.750 L 74.500 133.500 67.250 133.206 L 60 132.912 60 124.456 L 60 116 53.500 116 L 47 116 47 124.440 M 142 132.310 C 135.944 134.063, 129.924 137.036, 129.338 138.561 C 128.775 140.029, 132.787 148.299, 133.804 147.764 C 148.311 140.129, 159.172 140.381, 162.536 148.432 C 165.371 155.217, 164.844 156, 157.447 156 C 148.590 156, 138.168 158.508, 132.752 161.942 C 123.160 168.025, 121.215 181.946, 128.788 190.320 C 135.788 198.060, 151.418 198.827, 160.982 191.898 L 165 188.987 165 191.994 L 165 195 171 195 L 177 195 177 173.443 C 177 161.219, 176.529 150.014, 175.912 147.564 C 174.543 142.128, 170.003 136.552, 164.773 133.884 C 159.692 131.292, 148.246 130.501, 142 132.310 M 269.500 131.930 C 260.610 134.081, 252.993 140.251, 248.970 148.563 C 247.203 152.213, 246.493 155.654, 246.201 161.986 C 245.512 176.928, 251.187 187.013, 263.771 193.208 C 269.756 196.155, 271.357 196.500, 279.031 196.500 C 286.944 196.500, 288.196 196.207, 295.302 192.695 C 299.536 190.603, 303 188.447, 303 187.906 C 303 187.364, 302.091 185.138, 300.980 182.960 C 299.071 179.218, 296.786 177.919, 295.572 179.884 C 294.131 182.215, 285.489 185.107, 279.882 185.134 C 269.134 185.185, 261.380 179.150, 259.386 169.181 L 258.750 166 281.375 166 L 304 166 304 159.538 C 304 140.020, 288.229 127.400, 269.500 131.930 M 363.353 132.996 C 355.809 135.467, 348.023 142.133, 344.199 149.392 C 341.827 153.898, 341.510 155.620, 341.510 164 C 341.510 172.380, 341.827 174.102, 344.199 178.608 C 355.615 200.284, 386.510 202.992, 401.871 183.662 C 409.912 173.544, 410.397 156.982, 402.981 145.785 C 394.842 133.498, 378.208 128.129, 363.353 132.996 M 493.197 132.494 C 487.310 134.151, 484.352 135.515, 481.773 137.762 C 480.147 139.180, 480.190 139.509, 482.501 143.384 C 483.851 145.648, 485.303 147.472, 485.728 147.438 C 486.152 147.404, 488.750 146.306, 491.500 144.997 C 494.829 143.413, 498.370 142.598, 502.094 142.559 C 510.622 142.469, 514.163 145.020, 515.515 152.227 L 516.166 155.700 506.333 156.255 C 491.047 157.118, 481.972 161.214, 477.972 169.055 C 473.279 178.253, 476.953 189.382, 486.247 194.125 C 494.435 198.304, 505.400 197.391, 512.982 191.898 L 517 188.987 517 191.994 L 517 195 523.081 195 L 529.161 195 528.810 171.750 C 528.434 146.872, 527.856 143.691, 522.702 138.166 C 516.943 131.993, 503.898 129.485, 493.197 132.494 M 109.500 133.662 C 105.490 135.776, 102.134 138.856, 99.871 142.500 L 98.007 145.500 98.004 139.250 L 98 133 92 133 L 86 133 86 164 L 86 195 92.421 195 L 98.841 195 99.171 176.750 C 99.491 158.991, 99.573 158.376, 102.209 153.892 C 105.637 148.061, 109.183 145.696, 115.500 145.029 L 120.500 144.500 120.798 138.250 L 121.095 132 116.798 132.040 C 114.434 132.062, 111.150 132.792, 109.500 133.662 M 183.053 133.704 C 183.082 134.142, 188.149 148, 194.313 164.500 L 205.521 194.500 213.010 194.786 L 220.500 195.072 231.500 165.364 C 237.550 149.025, 242.650 135.037, 242.832 134.281 C 243.095 133.194, 241.738 132.967, 236.377 133.202 L 229.589 133.500 221.545 156.230 C 214.385 176.457, 212.001 181.834, 212 177.750 C 212 177.063, 208.505 166.825, 204.235 155 L 196.470 133.500 189.735 133.204 C 186.031 133.042, 183.024 133.267, 183.053 133.704 M 267.900 143.991 C 264.022 146.041, 261.478 149.246, 260.437 153.396 L 259.783 156 275.392 156 C 292.671 156, 292.343 156.150, 289.560 149.490 C 286.624 142.463, 275.929 139.748, 267.900 143.991 M 370.340 142.948 C 355.184 146.606, 349.064 164.881, 358.682 177.759 C 363.386 184.059, 374.405 187.080, 382.056 184.169 C 395.768 178.953, 399.445 159.297, 388.771 148.269 C 384.423 143.776, 376.447 141.474, 370.340 142.948 M 145.813 167.581 C 137.143 170.249, 134.376 177.530, 139.923 183.077 C 142.326 185.480, 143.684 186, 147.555 186 C 150.548 186, 153.466 185.257, 155.561 183.962 C 159.278 181.665, 164 173.183, 164 168.804 C 164 166.002, 163.995 166, 157.250 166.070 C 153.537 166.108, 148.391 166.788, 145.813 167.581 M 499.500 166.929 C 489.403 169.365, 485.886 177.040, 492.043 183.197 C 494.853 186.006, 495.508 186.206, 500.565 185.786 C 504.886 185.428, 506.693 184.715, 509.111 182.416 C 512.963 178.754, 514.762 175.340, 515.599 170.105 L 516.256 166 509.378 166.102 C 505.595 166.159, 501.150 166.531, 499.500 166.929" stroke="none" fill="#444444" fill-rule="evenodd"/><path d="M 557.355 73.909 C 546.414 79.085, 540 86.625, 540 94.312 C 540 96.242, 540.894 100.674, 541.987 104.161 C 544.331 111.637, 544.556 117.857, 542.581 120.559 C 541.284 122.332, 540.874 122.380, 537.831 121.115 C 533 119.107, 527.344 118.615, 524.176 119.927 C 522.032 120.815, 519.221 120.717, 511.588 119.489 C 506.182 118.619, 501.524 118.143, 501.237 118.430 C 500.565 119.102, 502.032 119.597, 510.050 121.403 C 522.877 124.292, 527.465 126.611, 533 133 C 538.974 139.896, 542.788 141.624, 559.480 144.999 C 570.620 147.251, 584.410 151.652, 591.277 155.146 C 593.611 156.334, 595.615 156.755, 596.520 156.249 C 597.610 155.639, 596.030 154.159, 590.342 150.465 C 581.306 144.595, 577 139.299, 577 134.054 C 577 127.917, 589.763 109.178, 605.498 92.212 C 609.216 88.204, 612.021 84.688, 611.733 84.399 C 610.047 82.713, 586.989 88.747, 574.628 94.108 C 569.693 96.249, 565.438 98, 565.173 98 C 564.907 98, 564.981 91.925, 565.337 84.500 C 565.838 74.063, 565.703 71, 564.742 71.001 C 564.059 71.001, 560.735 72.310, 557.355 73.909" stroke="none" fill="#1a9ed6" fill-rule="evenodd"/></svg>